<svg width="48" height="48" viewBox="0 0 48 48" fill="none" xmlns="http://www.w3.org/2000/svg">
<rect width="48" height="48" rx="8" fill="white" fill-opacity="0.05"/>
<path d="M22 25H15C14.7348 25 14.4804 25.1054 14.2929 25.2929C14.1054 25.4804 14 25.7348 14 26V33C14 33.2652 14.1054 33.5196 14.2929 33.7071C14.4804 33.8946 14.7348 34 15 34H22C22.2652 34 22.5196 33.8946 22.7071 33.7071C22.8946 33.5196 23 33.2652 23 33V26C23 25.7348 22.8946 25.4804 22.7071 25.2929C22.5196 25.1054 22.2652 25 22 25ZM21 32H16V27H21V32ZM33 14H26C25.7348 14 25.4804 14.1054 25.2929 14.2929C25.1054 14.4804 25 14.7348 25 15V22C25 22.2652 25.1054 22.5196 25.2929 22.7071C25.4804 22.8946 25.7348 23 26 23H33C33.2652 23 33.5196 22.8946 33.7071 22.7071C33.8946 22.5196 34 22.2652 34 22V15C34 14.7348 33.8946 14.4804 33.7071 14.2929C33.5196 14.1054 33.2652 14 33 14ZM32 21H27V16H32V21ZM33 25H26C25.7348 25 25.4804 25.1054 25.2929 25.2929C25.1054 25.4804 25 25.7348 25 26V33C25 33.2652 25.1054 33.5196 25.2929 33.7071C25.4804 33.8946 25.7348 34 26 34H33C33.2652 34 33.5196 33.8946 33.7071 33.7071C33.8946 33.5196 34 33.2652 34 33V26C34 25.7348 33.8946 25.4804 33.7071 25.2929C33.5196 25.1054 33.2652 25 33 25ZM32 32H27V27H32V32ZM22 14H15C14.7348 14 14.4804 14.1054 14.2929 14.2929C14.1054 14.4804 14 14.7348 14 15V22C14 22.2652 14.1054 22.5196 14.2929 22.7071C14.4804 22.8946 14.7348 23 15 23H22C22.2652 23 22.5196 22.8946 22.7071 22.7071C22.8946 22.5196 23 22.2652 23 22V15C23 14.7348 22.8946 14.4804 22.7071 14.2929C22.5196 14.1054 22.2652 14 22 14ZM21 21H16V16H21V21Z" fill="#F93E6C"/>
</svg>
